<?xml version="1.0" encoding="utf-8"?>
<!-- Generator: Adobe Illustrator 28.0.0, SVG Export Plug-In . SVG Version: 6.00 Build 0)  -->
<svg version="1.1" id="Layer_1" xmlns="http://www.w3.org/2000/svg" xmlns:xlink="http://www.w3.org/1999/xlink" x="0px" y="0px"
     viewBox="0 0 1056 643.4" style="enable-background:new 0 0 1056 643.4;" xml:space="preserve">
<style type="text/css">
	.st0{fill:white}
  .st1{fill:#64686C;}
</style>
  <g>
	<path class="st0" d="M438.53,259.21L438.53,259.21c-10.98-2.64-12.18-4.59-12.18-8.11c0-5.46,4.87-6.6,8.95-6.6
		c6.4,0,9.74,2.41,10.8,7.81l0.32,1.61h12.98l-0.22-2.2c-0.9-8.85-7.56-18.32-23.57-18.32c-13.7,0-22.54,7.3-22.54,18.59
		c0,9.92,6.09,15.43,21.01,19.03c12.29,2.96,13.24,5.97,13.24,9.91c0,5.04-3.56,7.59-10.58,7.59c-7.41,0-11.52-2.91-12.94-9.17
		l-0.35-1.56h-13.01l0.3,2.27c0.79,5.87,4.84,19.54,25.38,19.54c18.05,0,24.49-10.15,24.49-19.65
		C460.6,269.01,454.2,263,438.53,259.21z"/>
    <path class="st0" d="M498.65,233.4c-18.38,0-30.72,13.32-30.72,33.15s12.05,33.15,30,33.15c21.19,0,30.68-16.81,30.68-33.47
		C528.6,246.6,516.56,233.4,498.65,233.4z M498.3,288.14c-12.55,0-17-11.77-17-21.84c0-5,1.22-21.32,16.98-21.32
		c12.49,0,16.94,11.05,16.94,21.39C515.22,272.91,513.57,288.14,498.3,288.14z"/>
    <polygon class="st0" points="552.57,234.28 539.58,234.28 539.58,298.83 582.41,298.83 584.22,287.22 552.57,287.22 	"/>
    <path class="st0" d="M627.99,272.65c0,13.74-6.5,15.59-12.85,15.59c-8.63,0-13.01-5.24-13.01-15.59v-38.37h-13.08v38.42
		c0,17.35,9.21,26.91,25.92,26.91c17.05,0,26.06-9.48,26.06-27.42v-37.91h-13.04V272.65z"/>
    <polygon class="st0" points="648.69,245.89 668.03,245.89 668.03,298.83 681.07,298.83 681.07,245.89 700.42,245.89 700.42,234.28
		648.69,234.28 	"/>
    <rect x="707.59" y="234.28" class="st0" width="12.99" height="64.56"/>
    <path class="st0" d="M762.3,233.4c-18.38,0-30.72,13.32-30.72,33.15s12.05,33.15,30,33.15c21.19,0,30.68-16.81,30.68-33.47
		C792.25,246.6,780.21,233.4,762.3,233.4z M761.95,288.14c-12.55,0-17-11.77-17-21.84c0-5,1.22-21.32,16.98-21.32
		c12.49,0,16.94,11.05,16.94,21.39C778.87,272.91,777.22,288.14,761.95,288.14z"/>
    <path class="st0" d="M844.21,260.88c0,5.96,0,11.71,0.14,16.92c-4.42-7.57-11.33-18.91-17.65-29.28c-3.04-5-5.87-9.64-8.06-13.27
		l-0.58-0.97h-14.82v64.56h12.44v-25.15c0-7.33-0.02-14.4-0.15-20.26c7.25,12.51,21.11,35.65,26.36,44.44l0.58,0.97h14.14v-64.56
		h-12.4V260.88z"/>
    <path class="st0" d="M894.17,259.21L894.17,259.21c-10.98-2.64-12.18-4.59-12.18-8.11c0-5.46,4.87-6.6,8.95-6.6
		c6.41,0,9.74,2.41,10.8,7.81l0.32,1.61h12.98l-0.22-2.2c-0.9-8.85-7.56-18.32-23.57-18.32c-13.7,0-22.54,7.3-22.54,18.59
		c0,9.92,6.09,15.43,21.01,19.03c12.29,2.96,13.24,5.97,13.24,9.91c0,5.04-3.56,7.59-10.58,7.59c-7.41,0-11.52-2.91-12.94-9.17
		l-0.35-1.56h-13.01l0.3,2.27c0.79,5.87,4.84,19.54,25.38,19.54c18.05,0,24.49-10.15,24.49-19.65
		C916.23,269.01,909.84,263,894.17,259.21z"/>
</g>
  <path class="st0" d="M474.07,355.82c-0.03-0.74-0.04-1.32-0.04-1.73v-1h-26.36v10.44h14.78c-0.03,4.26-1.51,7.52-4.54,9.98
	c-3.08,2.5-7.4,3.77-12.85,3.77c-6.41,0-11.68-2.08-15.68-6.19c-4.01-4.11-6.04-9.56-6.04-16.2c0-6.53,2.03-11.89,6.03-15.95
	c4-4.05,9.25-6.11,15.6-6.11c3.06,0,5.86,0.56,8.32,1.67c2.46,1.11,4.7,2.83,6.67,5.12l0.61,0.71l8.89-6.69l-0.66-0.81
	c-3.08-3.74-6.64-6.56-10.58-8.38c-3.94-1.82-8.45-2.74-13.42-2.74c-4.69,0-9.16,0.8-13.29,2.38c-4.14,1.58-7.8,3.92-10.88,6.93
	c-3.2,3.08-5.64,6.69-7.27,10.72c-1.62,4.02-2.45,8.47-2.45,13.22c0,4.67,0.81,9.11,2.4,13.21c1.6,4.11,3.92,7.75,6.92,10.8
	c3.05,3.08,6.66,5.42,10.73,6.95c4.04,1.52,8.7,2.29,13.83,2.29c9.24,0,16.52-2.51,21.65-7.46c5.13-4.96,7.74-11.98,7.74-20.88
	C474.2,359.17,474.16,357.84,474.07,355.82z"/>
  <path class="st0" d="M519.63,359.56c0.4-0.18,0.79-0.38,1.18-0.6c2.9-1.61,5.2-3.9,6.82-6.8c1.61-2.88,2.43-6.25,2.43-10.02
	c0-3.8-0.81-7.18-2.41-10.04c-1.61-2.89-3.91-5.17-6.83-6.78c-2.89-1.59-6.27-2.4-10.07-2.4h-25.67v63.68h11.14v-25.22h11.89
	l12.73,25.22h13.04L519.63,359.56z M518.72,342.12c-0.02,2.69-0.72,4.75-2.14,6.3c-1.37,1.49-3.16,2.22-5.5,2.22h-14.86v-17h14.86
	c2.36,0,4.17,0.73,5.54,2.22C518.03,337.41,518.72,339.46,518.72,342.12z"/>
  <path class="st0" d="M571.91,321.16c-18.38,0-30.72,13.32-30.72,33.15s12.05,33.15,30,33.15c21.19,0,30.68-16.81,30.68-33.47
	C601.86,334.36,589.82,321.16,571.91,321.16z M571.56,375.89c-12.55,0-17-11.77-17-21.84c0-5,1.22-21.32,16.98-21.32
	c12.49,0,16.94,11.05,16.94,21.39C588.48,360.67,586.83,375.89,571.56,375.89z"/>
  <path class="st0" d="M653.21,322.03v38.37c0,13.74-6.5,15.59-12.85,15.59c-8.63,0-13.01-5.25-13.01-15.59v-38.37h-13.08v38.42
	c0,17.35,9.21,26.91,25.92,26.91c17.05,0,26.06-9.48,26.06-27.42v-37.91H653.21z"/>
  <path class="st0" d="M707.45,322.03h-25.38v64.56h13.04v-24.45H707c13.96,0,22.63-7.77,22.63-20.27
	C729.63,329.82,720.93,322.03,707.45,322.03z M695.1,333.49h11.57c3.64,0,9.74,1.12,9.74,8.6c0,5.79-3.29,8.61-10.05,8.61H695.1
	V333.49z"/>
  <g>
	<path class="st0" d="M449.18,443.9c1.05-1.23,2-2.53,2.85-3.89l-4.49-4.78c-1.11,1.56-2.16,2.94-3.14,4.13
		c-0.98,1.2-1.94,2.27-2.88,3.21l-9.77-11.34c3.18-1.86,5.5-3.73,6.95-5.62c1.45-1.89,2.18-3.98,2.18-6.27
		c0-3.03-1.04-5.44-3.11-7.23c-2.07-1.78-4.87-2.68-8.4-2.68c-3.55,0-6.45,0.99-8.7,2.96c-2.25,1.98-3.38,4.5-3.38,7.58
		c0,1.39,0.28,2.76,0.83,4.1c0.56,1.35,1.36,2.59,2.4,3.72l1.89,2.05c-3.63,2.27-6.28,4.52-7.95,6.78c-1.67,2.25-2.5,4.72-2.5,7.39
		c0,3.93,1.35,7.15,4.05,9.65c2.7,2.5,6.21,3.75,10.53,3.75c2.78,0,5.34-0.45,7.68-1.36c2.34-0.91,4.62-2.31,6.84-4.21l3.78,4.46
		h8.81l-7.88-8.94C447.01,446.27,448.14,445.12,449.18,443.9z M425.79,416.54c0.88-0.85,2.03-1.28,3.46-1.28
		c1.3,0,2.36,0.42,3.17,1.27c0.81,0.84,1.22,1.93,1.22,3.25c0,1.15-0.3,2.2-0.9,3.12c-0.6,0.93-1.5,1.75-2.69,2.45l-1.73,0.99
		l-2.34-2.82c-0.51-0.55-0.89-1.14-1.14-1.76c-0.25-0.62-0.37-1.26-0.37-1.92C424.48,418.5,424.91,417.4,425.79,416.54z
		 M431.73,450.13c-1.63,0.73-3.25,1.09-4.86,1.09c-2.16,0-3.96-0.72-5.42-2.15c-1.45-1.43-2.18-3.18-2.18-5.26
		c0-1.47,0.44-2.81,1.33-4.02c0.89-1.21,2.45-2.54,4.7-3.99l1.19-0.8l10.26,11.83C435.04,448.3,433.37,449.4,431.73,450.13z"/>
    <path class="st0" d="M506.96,411.46c-2.14-1.19-4.65-1.78-7.53-1.78h-10.7h-3.97h-3.69v46.6h7.66v-18.08h10.7
		c2.86,0,5.37-0.59,7.52-1.76c2.15-1.17,3.82-2.83,5.02-4.97c1.2-2.14,1.79-4.64,1.79-7.5c0-2.88-0.6-5.39-1.79-7.53
		C510.77,414.31,509.1,412.65,506.96,411.46z M504.16,428.96c-1.14,1.27-2.64,1.91-4.5,1.91h-10.93v-13.85h10.93
		c1.88,0,3.39,0.63,4.52,1.89c1.13,1.26,1.7,2.95,1.7,5.06C505.87,426.03,505.3,427.69,504.16,428.96z"/>
    <path class="st0" d="M536,409.68l-17.5,46.6h8.24l3.07-8.85h17.96l3.07,8.85h8.24l-17.5-46.6H536z M532.35,440.1l6.43-18.52
		l6.43,18.52H532.35z"/>
    <path class="st0" d="M595.8,435.34c1.97-1.14,3.5-2.74,4.61-4.79c1.11-2.05,1.67-4.45,1.67-7.21c0-2.76-0.55-5.16-1.65-7.21
		c-1.1-2.05-2.64-3.64-4.61-4.78c-1.98-1.13-4.29-1.7-6.94-1.7h-11.79h-4.49h-3.17v46.63h7.66v-19.23h7.53l10.23,19.23h9.2
		l-10.95-19.81C594.04,436.19,594.96,435.83,595.8,435.34z M588.65,429.71h-11.57v-12.72h11.57c1.65,0,2.96,0.58,3.96,1.75
		c0.99,1.17,1.49,2.7,1.49,4.6c-0.02,1.92-0.52,3.47-1.51,4.63C591.61,429.13,590.29,429.71,588.65,429.71z"/>
    <polygon class="st0" points="609.73,417.02 622.68,417.02 622.68,456.28 630.31,456.28 630.31,417.02 643.26,417.02 643.26,409.68
		609.73,409.68 	"/>
    <polygon class="st0" points="680.59,444.17 661.3,409.68 652.96,409.68 652.96,456.25 660.4,456.25 660.4,422.29 679.63,456.25
		688.02,456.25 688.02,409.68 680.59,409.68 	"/>
    <polygon class="st0" points="706.03,409.68 702.86,409.68 702.86,456.28 706.03,456.28 710.52,456.28 733.43,456.28 733.43,448.94
		710.52,448.94 710.52,436.8 729.91,436.8 729.91,429.49 710.52,429.49 710.52,417.02 733.43,417.02 733.43,409.68 710.52,409.68
		"/>
    <path class="st0" d="M772.4,435.34c1.97-1.14,3.5-2.74,4.62-4.79c1.11-2.05,1.67-4.45,1.67-7.21c0-2.76-0.55-5.16-1.65-7.21
		c-1.1-2.05-2.64-3.64-4.62-4.78s-4.29-1.7-6.94-1.7h-11.79h-4.49h-3.17v46.63h7.66v-19.23h7.53l10.23,19.23h9.2l-10.95-19.81
		C770.65,436.19,771.56,435.83,772.4,435.34z M765.25,429.71h-11.57v-12.72h11.57c1.64,0,2.96,0.58,3.96,1.75
		c0.99,1.17,1.49,2.7,1.49,4.6c-0.02,1.92-0.52,3.47-1.51,4.63C768.21,429.13,766.9,429.71,765.25,429.71z"/>
    <path class="st0" d="M821.93,436.59c-0.87-1.61-2.01-2.88-3.45-3.8s-3.02-1.62-4.76-2.12c-1.74-0.49-3.49-0.91-5.24-1.25
		c-1.77-0.36-3.42-0.75-4.95-1.15c-1.53-0.41-2.77-1.03-3.72-1.87c-0.95-0.84-1.43-2.08-1.43-3.7v-0.03c0-1.96,0.81-3.49,2.42-4.57
		c1.61-1.08,3.89-1.62,6.84-1.62c1.77,0,3.59,0.33,5.45,0.98c1.86,0.65,3.69,1.63,5.48,2.93l3.72-6.31
		c-2.27-1.6-4.65-2.81-7.15-3.64c-2.5-0.82-5-1.23-7.5-1.23c-5.36,0-9.51,1.22-12.45,3.65s-4.41,5.88-4.41,10.32v0.03
		c0,2.76,0.46,4.96,1.39,6.62c0.93,1.66,2.16,2.93,3.69,3.81c1.53,0.89,3.21,1.54,5.03,1.96c1.83,0.42,3.63,0.76,5.4,1.04
		c1.67,0.28,3.2,0.61,4.61,1.01s2.55,1.01,3.41,1.84c0.87,0.83,1.3,2.03,1.3,3.59v0.03c0,2.03-0.86,3.6-2.58,4.71
		c-1.72,1.11-4.14,1.67-7.26,1.67c-2.5,0-4.87-0.39-7.1-1.17s-4.25-1.93-6.04-3.45l-4.07,6.12c1.52,1.26,3.17,2.32,4.97,3.17
		s3.72,1.5,5.79,1.94c2.06,0.44,4.21,0.66,6.46,0.66c5.53,0,9.82-1.2,12.87-3.61c3.04-2.4,4.57-5.81,4.57-10.21v-0.06
		C823.22,440.3,822.79,438.2,821.93,436.59z"/>
</g>
  <g>
	<g>
		<path class="st1" d="M124.28,509.91h4.84v5.59c-0.85,0.75-2.32,1.2-3.87,1.2c-4.6,0-7.35-3.4-7.35-9.1c0-5.54,2.8-8.99,7.32-8.99
			c1.89,0,3.35,0.64,4.74,2.08l0.19,0.2l1.92-2.28l-0.16-0.16c-1.86-1.92-4.14-2.9-6.78-2.9c-6.43,0-10.75,4.87-10.75,12.12
			c0,7.34,4.15,12.08,10.58,12.08c2.93,0,5.56-1,7.23-2.73l0.07-0.07V507h-8V509.91z"/>
    <polygon class="st1" points="145.52,508.57 154.19,508.57 154.19,505.61 145.52,505.61 145.52,498.94 155.8,498.94 155.8,495.98
			142.11,495.98 142.11,519.35 156.14,519.35 156.14,516.39 145.52,516.39 		"/>
    <path class="st1" d="M174.06,495.56c-6.09,0-10.03,4.72-10.03,12.02c0,7.29,4.03,12.19,10.03,12.19c6,0,10.03-4.9,10.03-12.19
			C184.08,500.28,180.15,495.56,174.06,495.56z M174.06,516.71c-3.96,0-6.52-3.58-6.52-9.13c0-5.44,2.56-8.96,6.52-8.96
			s6.52,3.52,6.52,8.96C180.58,513.13,178.02,516.71,174.06,516.71z"/>
    <polygon class="st1" points="190.39,498.94 197.31,498.94 197.31,519.35 200.72,519.35 200.72,498.94 207.64,498.94
			207.64,495.98 190.39,495.98 		"/>
    <polygon class="st1" points="229.66,505.56 219.52,505.56 219.52,495.98 216.11,495.98 216.11,519.35 219.52,519.35 219.52,508.6
			229.66,508.6 229.66,519.35 233.07,519.35 233.07,495.98 229.66,495.98 		"/>
    <polygon class="st1" points="247.13,508.57 255.79,508.57 255.79,505.61 247.13,505.61 247.13,498.94 257.4,498.94 257.4,495.98
			243.72,495.98 243.72,519.35 257.75,519.35 257.75,516.39 247.13,516.39 		"/>
    <path class="st1" d="M282.63,502.66c0-4.44-2.78-6.69-8.25-6.69h-7.41v23.37h3.41v-9.67h3.74l5.51,9.67h3.88l-5.88-10.09
			C280.85,508.35,282.63,506.02,282.63,502.66z M270.37,498.84h3.58c3.69,0,5.27,1.14,5.27,3.83c0,2.76-1.77,4.16-5.27,4.16h-3.58
			V498.84z"/>
    <path class="st1" d="M302.93,508.36L302.93,508.36c-0.29,0.82-0.56,1.66-0.83,2.5c-0.19,0.59-0.38,1.19-0.58,1.78
			c-0.19-0.54-0.37-1.08-0.55-1.63c-0.3-0.89-0.6-1.78-0.91-2.65l-4.44-12.39h-3.93v23.37h3.14V506.5c0-1.57-0.14-3.62-0.27-5.39
			l1.37,3.93l4.39,12h2.28l4.37-12l1.37-3.93c-0.13,1.77-0.27,3.82-0.27,5.39v12.84h3.21v-23.37h-3.93L302.93,508.36z"/>
    <path class="st1" d="M326.67,495.98l-7.91,23.37h3.49l2.2-6.97h7.97l2.18,6.97h3.62l-7.91-23.37H326.67z M331.55,509.56h-6.2
			l1-3.16c0.76-2.35,1.44-4.68,2.1-7.09c0.75,2.69,1.43,4.95,2.12,7.09L331.55,509.56z"/>
    <polygon class="st1" points="349.01,495.98 345.6,495.98 345.6,519.35 358.99,519.35 358.99,516.39 349.01,516.39 		"/>
    <polygon class="st1" points="382.68,508.57 391.34,508.57 391.34,505.61 382.68,505.61 382.68,498.94 392.95,498.94
			392.95,495.98 379.27,495.98 379.27,519.35 393.3,519.35 393.3,516.39 382.68,516.39 		"/>
    <path class="st1" d="M416.04,508.06c0,1.88,0.14,3.85,0.27,5.76c0.02,0.22,0.03,0.44,0.04,0.66l-2.08-4l-8.35-14.5h-3.4v23.37
			h3.26v-12.22c0-1.83-0.13-3.7-0.26-5.5c-0.02-0.26-0.04-0.52-0.05-0.78l2.08,3.99l8.28,14.39l0.07,0.12h3.4v-23.37h-3.26V508.06z"
    />
    <polygon class="st1" points="433.36,508.57 442.02,508.57 442.02,505.61 433.36,505.61 433.36,498.94 443.63,498.94
			443.63,495.98 429.95,495.98 429.95,519.35 443.98,519.35 443.98,516.39 433.36,516.39 		"/>
    <path class="st1" d="M468.86,502.66c0-4.44-2.78-6.69-8.25-6.69h-7.41v23.37h3.41v-9.67h3.74l5.51,9.67h3.88l-5.88-10.09
			C467.09,508.35,468.86,506.02,468.86,502.66z M456.61,498.84h3.58c3.69,0,5.27,1.14,5.27,3.83c0,2.76-1.77,4.16-5.27,4.16h-3.58
			V498.84z"/>
    <path class="st1" d="M486.46,509.91h4.84v5.59c-0.85,0.75-2.32,1.2-3.87,1.2c-4.6,0-7.35-3.4-7.35-9.1c0-5.54,2.8-8.99,7.32-8.99
			c1.89,0,3.35,0.64,4.74,2.08l0.19,0.2l1.92-2.28l-0.16-0.16c-1.86-1.92-4.14-2.9-6.78-2.9c-6.43,0-10.75,4.87-10.75,12.12
			c0,7.34,4.15,12.08,10.58,12.08c2.93,0,5.56-1,7.23-2.73l0.07-0.07V507h-8V509.91z"/>
    <path class="st1" d="M511.85,502.58L511.85,502.58c-0.49,1.18-1.02,2.29-1.57,3.47c-0.18,0.39-0.37,0.78-0.55,1.18
			c-0.68-1.48-1.28-2.87-1.92-4.33l-3.15-6.92h-3.67l7.03,14.32v9.06h3.41v-9.06l7.03-14.32h-3.58L511.85,502.58z"/>
    <path class="st1" d="M551.14,514.89c1.66-2.25,2.96-4.95,3.87-8.05l0.09-0.32h-3.19l-0.05,0.18c-0.67,2.45-1.7,4.61-3.05,6.42
			c-2.11-1.78-4-3.88-5.37-5.96c2.41-1.74,5.06-3.74,5.06-6.83c0-2.9-1.86-4.78-4.75-4.78c-3.2,0-5.52,2.39-5.52,5.68
			c0,1.55,0.48,3.32,1.44,5.25c-2.33,1.63-4.44,3.59-4.44,6.7c0,3.88,2.97,6.58,7.22,6.58c2.49,0,4.66-0.85,6.63-2.59
			c1.77,1.24,3.55,2.13,5.15,2.58l0.23,0.06l0.93-2.86l-0.25-0.07C553.98,516.57,552.6,515.87,551.14,514.89z M542.13,504.83
			c-0.62-1.35-0.94-2.57-0.94-3.64c0-1.81,1.05-3.08,2.56-3.08c1.73,0,1.91,1.59,1.91,2.27
			C545.67,502.23,544.02,503.55,542.13,504.83z M541.08,508.93c1.49,2.26,3.49,4.52,5.67,6.43c-1.31,1.06-2.68,1.62-3.98,1.62
			c-2.47,0-4.26-1.67-4.26-3.97C538.51,511.32,539.77,510,541.08,508.93z"/>
    <polygon class="st1" points="578.6,508.57 587.26,508.57 587.26,505.61 578.6,505.61 578.6,498.94 588.87,498.94 588.87,495.98
			575.19,495.98 575.19,519.35 589.22,519.35 589.22,516.39 578.6,516.39 		"/>
    <path class="st1" d="M611.96,508.06c0,1.88,0.14,3.85,0.27,5.76c0.02,0.22,0.03,0.44,0.04,0.66l-2.08-4l-8.35-14.5h-3.4v23.37
			h3.26v-12.22c0-1.83-0.13-3.7-0.26-5.5c-0.02-0.26-0.04-0.52-0.05-0.78l2.08,3.99l8.28,14.39l0.07,0.12h3.4v-23.37h-3.26V508.06z"
    />
    <path class="st1" d="M634.42,509.91h4.84v5.59c-0.85,0.75-2.32,1.2-3.87,1.2c-4.6,0-7.35-3.4-7.35-9.1c0-5.54,2.8-8.99,7.32-8.99
			c1.89,0,3.35,0.64,4.74,2.08l0.19,0.2l1.92-2.28l-0.16-0.16c-1.86-1.92-4.14-2.9-6.77-2.9c-6.43,0-10.75,4.87-10.75,12.12
			c0,7.34,4.15,12.08,10.58,12.08c2.93,0,5.56-1,7.23-2.73l0.07-0.07V507h-8V509.91z"/>
    <rect x="652.25" y="495.98" class="st1" width="3.41" height="23.37"/>
    <path class="st1" d="M679.82,508.06c0,1.88,0.14,3.85,0.27,5.76c0.01,0.22,0.03,0.44,0.04,0.66l-2.08-4l-8.35-14.5h-3.4v23.37
			h3.26v-12.22c0-1.83-0.13-3.7-0.26-5.5c-0.02-0.26-0.04-0.52-0.05-0.79l2.08,3.99l8.28,14.39l0.07,0.12h3.4v-23.37h-3.26V508.06z"
    />
    <polygon class="st1" points="697.14,508.57 705.81,508.57 705.81,505.61 697.14,505.61 697.14,498.94 707.41,498.94
			707.41,495.98 693.73,495.98 693.73,519.35 707.76,519.35 707.76,516.39 697.14,516.39 		"/>
    <polygon class="st1" points="720.39,508.57 729.05,508.57 729.05,505.61 720.39,505.61 720.39,498.94 730.66,498.94
			730.66,495.98 716.98,495.98 716.98,519.35 731.01,519.35 731.01,516.39 720.39,516.39 		"/>
    <path class="st1" d="M755.89,502.66c0-4.44-2.78-6.69-8.25-6.69h-7.41v23.37h3.41v-9.67h3.74l5.51,9.67h3.88l-5.88-10.09
			C754.12,508.35,755.89,506.02,755.89,502.66z M743.64,498.84h3.58c3.69,0,5.27,1.14,5.27,3.83c0,2.76-1.77,4.16-5.27,4.16h-3.58
			V498.84z"/>
    <rect x="764.94" y="495.98" class="st1" width="3.41" height="23.37"/>
    <path class="st1" d="M792.51,508.06c0,1.88,0.14,3.85,0.27,5.76c0.01,0.22,0.03,0.44,0.04,0.66l-2.08-4l-8.35-14.5h-3.4v23.37
			h3.26v-12.22c0-1.83-0.13-3.7-0.26-5.5c-0.02-0.26-0.04-0.52-0.05-0.79l2.08,3.99l8.28,14.39l0.07,0.12h3.4v-23.37h-3.26V508.06z"
    />
    <path class="st1" d="M814.97,507v2.91h4.84v5.59c-0.85,0.75-2.32,1.2-3.87,1.2c-4.6,0-7.35-3.4-7.35-9.1
			c0-5.54,2.8-8.99,7.32-8.99c1.89,0,3.35,0.64,4.74,2.08l0.19,0.2l1.92-2.28l-0.16-0.16c-1.86-1.92-4.14-2.9-6.77-2.9
			c-6.43,0-10.75,4.87-10.75,12.12c0,7.34,4.15,12.08,10.58,12.08c2.93,0,5.56-1,7.23-2.73l0.07-0.07V507H814.97z"/>
	</g>
</g>
  <g>
	<path class="st0" d="M337.79,309.69c-8.28,44.12-51.3,85.51-97.37,87.14c-19.1,0.67-35.12-5.62-39.13-7.27
		c-12.52-5.17-23.92-13.09-34.09-23.74c-24.32-25.47-33.09-55.88-26.54-90.03c10.15-52.92,59.5-89.46,116.48-78.95
		c19.23,3.55,32.77,11.44,38.33,15.07c6.13,4,25.77,17.21,36.61,42.64c2.9,6.8,4.45,12.79,5.32,17.01c8.16,0,16.32,0,24.49,0
		c-0.12-0.95-0.34-2.49-0.67-4.35c-2.77-15.42-8.89-26.26-11.87-31.54c-19.28-34.14-50.55-50.75-50.55-50.75
		c-15.96-8.54-33.44-13.1-51.54-14.04c-47.3,0.21-80.12,15.27-104.98,46.36c-44.79,56.02-33.24,134.25,17.34,175.19
		c26.42,21.38,56.7,30.48,90.2,27.93c30.85-2.34,57.18-15.27,78.9-37.45c23.6-24.1,34.1-52.59,34.3-86.08h0.01v-8.55
		c-7.96,0-15.91,0-23.87,0C339.42,292.73,339.52,300.44,337.79,309.69z"/>
    <path class="st0" d="M273.81,288.38C273.81,288.38,273.81,288.38,273.81,288.38c-12.45,0-19.9-0.01-32.35-0.01v23.79L276.9,312
		c1.95,0.2,2.16,1.08,0.78,3.73c-8.94,17.08-28.28,26.2-47.13,22.01c-17.08-3.8-30.63-17.79-33.41-34.51
		c-2.9-17.44,5.35-35.27,20.3-43.9c17.06-9.85,37.43-6.17,49.13,3.74c3.41,2.89,5.72,6,7.26,8.47h28.26
		c-2.24-6.02-6.61-15.27-15.22-23.85c0,0-2.98-2.96-6.17-5.4c-27.09-20.73-65.06-17.86-89.19,6.5
		c-18.42,18.59-23.87,48.08-13.54,73.3c10.03,24.52,34.53,41.3,60.7,41.58c0.27,0,0.61,0.01,1.02,0c0,0,12.58-0.08,24.77-5.35
		c14.84-6.42,32.58-24.99,38.15-49.51c1.93-8.5,1.94-15.7,1.7-20.17c-5.24-0.13-10.57-0.22-15.96-0.26
		C283.44,288.35,278.59,288.35,273.81,288.38z"/>
</g>
  <g>
	<path class="st0" d="M475.67,176.88v-1.5h-27.69v11.56h14.98c-0.13,3.92-1.58,6.95-4.42,9.26c-3.03,2.46-7.31,3.71-12.72,3.71
		c-6.45,0-11.54-2-15.55-6.12c-3.97-4.07-5.98-9.49-5.98-16.09c0-6.48,2.01-11.81,5.98-15.83c4.01-4.07,9.08-6.05,15.47-6.05
		c3.03,0,5.81,0.56,8.24,1.66c2.42,1.09,4.64,2.8,6.59,5.06l0.92,1.06l9.78-7.36l-1-1.21c-3.17-3.85-6.83-6.75-10.9-8.63
		c-4.05-1.87-8.7-2.82-13.8-2.82c-4.82,0-9.41,0.82-13.65,2.44c-4.26,1.63-8.03,4.03-11.19,7.13c-3.29,3.17-5.81,6.88-7.48,11.03
		c-1.67,4.13-2.51,8.71-2.51,13.59c0,4.79,0.83,9.36,2.46,13.57c1.64,4.23,4.04,7.97,7.12,11.11c3.15,3.18,6.87,5.59,11.05,7.16
		c4.15,1.56,8.93,2.35,14.19,2.35c9.5,0,17-2.59,22.29-7.7c5.3-5.12,7.99-12.36,7.99-21.51c0-0.73-0.04-2.09-0.13-4.14
		C475.69,177.87,475.67,177.29,475.67,176.88z"/>
    <polygon class="st0" points="488.72,210.31 526.5,210.31 526.5,198.24 501.85,198.24 501.85,181.11 526.5,181.11 526.5,169.21
		501.85,169.21 501.85,156.59 526.5,156.59 526.5,144.99 488.72,144.99 	"/>
    <path class="st0" d="M604.64,164.66c-1.73-4.12-4.28-7.87-7.6-11.16c-3.31-3.22-7.1-5.7-11.28-7.38
		c-4.18-1.68-8.65-2.53-13.31-2.53c-4.69,0-9.18,0.85-13.37,2.53c-4.19,1.68-7.99,4.17-11.31,7.39c-3.31,3.25-5.86,6.98-7.57,11.09
		c-1.71,4.11-2.58,8.54-2.58,13.18c0,4.67,0.87,9.1,2.59,13.18c1.72,4.08,4.26,7.79,7.57,11c3.25,3.19,7.04,5.68,11.28,7.41
		c4.23,1.73,8.74,2.6,13.4,2.6c4.6,0,9.06-0.87,13.25-2.58c4.19-1.71,8-4.21,11.34-7.42c3.31-3.22,5.86-6.94,7.59-11.05
		c1.73-4.11,2.61-8.53,2.61-13.14C607.25,173.2,606.37,168.78,604.64,164.66z M572.46,199.56c-2.88,0-5.63-0.55-8.19-1.63
		c-2.56-1.08-4.87-2.67-6.87-4.73c-2.01-2.06-3.57-4.44-4.62-7.05c-1.06-2.62-1.59-5.44-1.59-8.38c0-2.97,0.54-5.82,1.6-8.47
		c1.05-2.64,2.61-5.01,4.62-7.05c2-2.06,4.32-3.65,6.89-4.73c2.57-1.08,5.32-1.63,8.17-1.63c2.85,0,5.59,0.55,8.16,1.65
		c2.57,1.09,4.86,2.68,6.81,4.71c2.01,2.06,3.57,4.45,4.64,7.09c1.07,2.65,1.61,5.48,1.61,8.42c0,2.91-0.54,5.72-1.61,8.35
		c-1.07,2.63-2.63,5.01-4.64,7.07c-2.04,2.06-4.36,3.66-6.9,4.74C578,199.02,575.28,199.56,572.46,199.56z"/>
</g>
</svg>
