<?xml version="1.0" encoding="UTF-8"?>
<svg xmlns="http://www.w3.org/2000/svg" width="319" height="274" viewBox="0 0 319 274" fill="none">
  <g clip-path="url(#clip0_65_1557)">
    <path d="M11.7276 254.794C14.164 254.794 16.27 255.868 16.8895 258.305H22.2164C21.6796 253.266 17.4263 250.003 11.8515 250.003C4.66628 250.045 0 255.084 0 262.105C0 269.126 4.5424 274 11.0669 274C13.8337 274 16.3526 273.009 17.5915 271.563L17.8805 273.67H22.2577V260.329H11.3147V264.79H17.4676C17.2611 267.227 15.568 269.292 11.7276 269.292C7.88725 269.292 5.36828 266.979 5.36828 262.312C5.36828 257.644 7.5156 254.877 11.7276 254.877V254.794Z" fill="#3EC9BD"></path>
    <path d="M39.9316 273.628H54.6738V268.92H45.0109V264.129H53.5588V259.668H45.0109V255.125H54.6738V250.417H39.9316V273.628Z" fill="#3EC9BD"></path>
    <path d="M81.4742 250.003C74.7431 250.003 70.1182 254.918 70.1182 262.022C70.1182 269.126 74.7431 274 81.4329 274C88.1226 274 92.8714 269.085 92.8714 261.981C92.8714 254.877 88.2464 250.003 81.4742 250.003ZM81.4742 269.126C77.7164 269.126 75.4452 266.442 75.4452 261.981C75.4452 257.52 77.7164 254.877 81.4742 254.877C85.232 254.877 87.4619 257.562 87.4619 261.981C87.4619 266.4 85.1907 269.126 81.4742 269.126Z" fill="#3EC9BD"></path>
    <path d="M129.871 273.628H144.613V268.92H134.95V264.129H143.498V259.668H134.95V255.125H144.613V250.417H129.871V273.628Z" fill="#3EC9BD"></path>
    <path d="M176.163 265.203L166.376 250.417H161.338V273.628H166.376V258.883L176.163 273.628H181.159V250.417H176.163V265.203Z" fill="#3EC9BD"></path>
    <path d="M198.544 273.628H213.327V268.92H203.664V264.129H212.212V259.668H203.664V255.125H213.327V250.417H198.544V273.628Z" fill="#3EC9BD"></path>
    <path d="M247.891 257.934C247.891 253.142 244.67 250.417 239.054 250.417H230.093V273.628H235.172V265.492H239.095L242.564 273.628H248.138L244.05 264.418C246.611 263.096 247.891 260.949 247.891 257.934ZM239.012 261.031H235.172V254.918H239.054C241.325 254.918 242.522 255.992 242.522 257.934C242.522 259.875 241.242 261.031 239.012 261.031Z" fill="#3EC9BD"></path>
    <path d="M274.65 254.794C277.086 254.794 279.192 255.868 279.811 258.305H285.138C284.602 253.266 280.348 250.003 274.773 250.003C267.588 250.003 262.922 255.042 262.922 262.064C262.922 269.085 267.464 273.959 273.989 273.959C276.756 273.959 279.275 272.968 280.513 271.522L280.802 273.628H285.18V260.288H274.278V264.748H280.431C280.224 267.185 278.531 269.25 274.691 269.25C270.85 269.25 268.331 266.937 268.331 262.27C268.331 257.603 270.479 254.836 274.691 254.836L274.65 254.794Z" fill="#3EC9BD"></path>
    <path d="M309.585 257.892C309.213 258.636 308.965 259.255 308.676 259.792C308.428 259.214 308.18 258.636 307.809 257.892L303.927 250.375H298.229L306.074 264.79V273.628H311.154V264.79L319 250.375H313.466L309.585 257.892Z" fill="#3EC9BD"></path>
    <path d="M7.10265 198.665C4.41851 195.113 2.06472 191.313 0 187.224V218.118H27.7086C20.4408 213.286 13.5033 207.008 7.14395 198.665H7.10265Z" fill="#3EC9BD"></path>
    <path d="M15.7332 174.998C12.058 170.827 8.91961 166.118 6.27676 161.038H0V171.405C3.05579 178.468 6.85489 184.911 11.5625 190.528C24.2812 205.645 38.982 213.244 53.9306 218.077H141.64C126.981 213.162 111.908 211.427 97.7441 208.866C70.8614 203.993 39.8905 202.547 15.7332 174.916V174.998Z" fill="#3EC9BD"></path>
    <path d="M280.514 161.038C287.823 174.998 292.448 193.543 293.439 218.118H319V161.038H280.514Z" fill="#3EC9BD"></path>
    <path d="M275.765 189.454C271.966 177.311 266.68 168.101 260.692 161.038H215.599C220.678 163.392 225.633 166.283 230.506 169.877C242.44 178.633 253.879 193.337 259.495 217.416C259.536 217.664 259.619 217.87 259.66 218.118H281.298C280.348 208.123 278.614 198.499 275.806 189.454H275.765Z" fill="#FFBF36"></path>
    <path d="M220.926 184.539C191.689 160.79 157.415 163.516 126.527 162.277C115.295 161.823 103.608 161.905 91.8394 161.038H45.6309C69.3752 173.222 95.4733 172.396 119.218 174.131C148.867 176.32 182.027 174.585 209.859 198.83C215.971 204.158 220.926 210.642 224.849 218.077H243.844C238.187 202.547 229.846 191.726 220.967 184.498L220.926 184.539Z" fill="#3EC9BD"></path>
    <path d="M204.49 218.118C203.21 216.631 201.889 215.227 200.485 213.864C173.726 188.008 141.103 188.669 112.156 185.613C84.7362 182.722 53.6828 183.383 27.7911 161.079H15.1963C16.6829 163.021 18.2521 164.92 19.9452 166.655C45.3 193.171 77.0141 193.543 104.805 197.508C128.467 200.895 154.813 201.762 177.814 218.159H204.49V218.118Z" fill="#FFBF36"></path>
    <path d="M184.669 0H157.332V128.74H184.669V0Z" fill="#3EC9BD"></path>
    <path d="M271.511 71.2466H313.88V66.5381V27.3835V0H286.543H201.848V27.3835H286.543V43.9044H240.747H229.185H201.848V47.2086V128.533H229.185V71.4944L276.384 128.533H319L271.511 71.2466Z" fill="#3EC9BD"></path>
    <path d="M140.112 0H112.775H108.481L70.0768 71.4944L31.6316 0H27.337H0V128.533H27.337V64.4317L54.2197 109.74L57.6058 115.481L61.7766 122.544L65.3692 128.533H74.7843L78.3357 122.544L82.5064 115.481L85.8926 109.74L112.775 64.473V128.533H140.112V0.16521L140.195 0H140.112Z" fill="#3EC9BD"></path>
  </g>
  <defs>
    <clipPath id="clip0_65_1557">
      <rect width="319" height="274" fill="white"></rect>
    </clipPath>
  </defs>
</svg>
